<?xml version="1.0" encoding="utf-8"?>
<!-- Generator: Adobe Illustrator 28.0.0, SVG Export Plug-In . SVG Version: 6.00 Build 0)  -->
<svg version="1.1" id="Capa_1" xmlns="http://www.w3.org/2000/svg" xmlns:xlink="http://www.w3.org/1999/xlink" x="0px" y="0px"
	 viewBox="0 0 800 800" style="enable-background:new 0 0 800 800;" xml:space="preserve">
<style type="text/css">
	.st0{fill-rule:evenodd;clip-rule:evenodd;}
</style>
<path class="st0" d="M400,66.7c-90.5,0-101.9,0.4-137.4,2c-35.5,1.6-59.7,7.3-80.9,15.5c-22.2,8.4-42.4,21.5-59,38.4
	c-17,16.6-30.1,36.8-38.4,59c-8.2,21.2-13.9,45.5-15.5,81c-1.6,35.5-2,46.8-2,137.4c0,90.6,0.4,101.9,2,137.4
	c1.6,35.5,7.3,59.7,15.5,80.9c8.4,22.2,21.5,42.4,38.4,59c16.6,17,36.8,30.1,59,38.4c21.2,8.2,45.4,13.9,80.9,15.5
	c35.6,1.6,46.9,2,137.4,2s101.9-0.4,137.4-2c35.5-1.6,59.7-7.3,80.9-15.5c22.2-8.4,42.4-21.5,59-38.4c17-16.6,30.1-36.8,38.4-59
	c8.2-21.2,13.9-45.4,15.5-80.9c1.6-35.6,2-46.9,2-137.4s-0.4-101.9-2-137.4c-1.6-35.5-7.3-59.7-15.5-80.9
	c-8.4-22.2-21.5-42.4-38.4-59c-16.6-17-36.8-30.1-59-38.4c-21.2-8.2-45.5-13.9-81-15.5C501.9,67.1,490.6,66.7,400,66.7z M400,126.7
	c89,0,99.6,0.3,134.7,1.9c32.5,1.5,50.1,6.9,61.9,11.5c15.6,6,26.7,13.3,38.3,24.9c11.7,11.7,18.9,22.8,24.9,38.3
	c4.6,11.8,10,29.4,11.5,61.9c1.6,35.2,1.9,45.7,1.9,134.7s-0.3,99.6-1.9,134.7c-1.5,32.5-6.9,50.1-11.5,61.9
	c-5.3,14.5-13.8,27.6-24.9,38.3c-10.8,11.1-23.9,19.6-38.3,24.9c-11.8,4.6-29.4,10-61.9,11.5c-35.2,1.6-45.7,1.9-134.7,1.9
	c-89,0-99.6-0.3-134.7-1.9c-32.5-1.5-50.1-6.9-61.9-11.5c-14.5-5.3-27.6-13.8-38.3-24.9c-11.1-10.8-19.6-23.9-24.9-38.3
	c-4.6-11.8-10-29.4-11.5-61.9c-1.6-35.2-1.9-45.7-1.9-134.7s0.3-99.6,1.9-134.7c1.5-32.5,6.9-50.1,11.5-61.9
	c6-15.6,13.3-26.7,24.9-38.3c10.8-11.1,23.9-19.6,38.3-24.9c11.8-4.6,29.4-10,61.9-11.5C300.4,127.1,311,126.7,400,126.7z"/>
<path class="st0" d="M400,511.2c-14.6,0-29.1-2.9-42.6-8.5c-13.5-5.6-25.8-13.8-36.1-24.1c-10.3-10.3-18.5-22.6-24.1-36.1
	c-5.6-13.5-8.5-28-8.5-42.6s2.9-29.1,8.5-42.6c5.6-13.5,13.8-25.8,24.1-36.1c10.3-10.3,22.6-18.5,36.1-24.1
	c13.5-5.6,28-8.5,42.6-8.5c29.5,0,57.8,11.7,78.6,32.6c20.9,20.9,32.6,49.1,32.6,78.6s-11.7,57.8-32.6,78.6
	C457.8,499.5,429.5,511.2,400,511.2z M400,228.7c-45.4,0-89,18.1-121.2,50.2c-32.1,32.1-50.2,75.7-50.2,121.2s18.1,89,50.2,121.1
	c32.1,32.1,75.7,50.2,121.2,50.2s89-18,121.1-50.2c32.1-32.1,50.2-75.7,50.2-121.1s-18.1-89-50.2-121.2
	C489,246.7,445.4,228.7,400,228.7z M621.2,225.6c0,10.7-4.3,21-11.9,28.6c-7.6,7.6-17.9,11.9-28.6,11.9c-10.7,0-21-4.3-28.6-11.9
	c-7.6-7.6-11.9-17.9-11.9-28.6c0-10.7,4.3-21,11.9-28.6c7.6-7.6,17.9-11.9,28.6-11.9c10.7,0,21,4.3,28.6,11.9
	C616.9,204.5,621.2,214.8,621.2,225.6z"/>
</svg>
