<?xml version="1.0" encoding="utf-8"?>
<!-- Generator: Adobe Illustrator 28.0.0, SVG Export Plug-In . SVG Version: 6.00 Build 0)  -->
<svg version="1.1" id="Capa_1" xmlns="http://www.w3.org/2000/svg" xmlns:xlink="http://www.w3.org/1999/xlink" x="0px" y="0px"
	 viewBox="0 0 336 223.5" style="enable-background:new 0 0 336 223.5;" xml:space="preserve">
<style type="text/css">
	.st0{fill:#242424;}
	.st1{font-family:'BerlinSansFB-Reg';}
	.st2{font-size:76.2435px;}
	.st3{fill:#232324;}
</style>
<g>
	<text transform="matrix(1 0 0 1 138.5006 144.588)" class="st0 st1 st2">EDES</text>
</g>
<path class="st3" d="M163,162.6c-1.9-4.1-5.2-7.3-9.5-8.9c-4.2-1.6-8.9-1.5-13,0.4c-1.7,0.8-3.3,1.8-4.7,3.1L60.9,120
	c0.1-0.4,0.1-0.9,0.1-1.3l25.3-6.4c1.9,2.8,4.7,5.1,8.2,6.5c2,0.8,4.1,1.2,6.2,1.2c2.4,0,4.8-0.5,7.1-1.5c4.2-1.9,7.5-5.3,9.1-9.7
	c3-7.8-0.1-16.4-6.8-20.8l6.9-30.1c3.6-1,6.6-3.7,8-7.4c2.4-6.3-0.8-13.4-7.1-15.8c-4.8-1.8-10.1-0.4-13.4,3.2L47.9,24.2
	C47.7,14.9,42,6.3,32.8,2.8c-5.9-2.2-12.2-2.1-18,0.5c-5.7,2.5-10.1,7.2-12.4,13s-2,12.3,0.6,18c2.5,5.7,7.2,10.1,13,12.4
	c2.2,0.8,4.5,1.3,6.8,1.5l10,52.6c-3.9,2.2-6.9,5.6-8.5,9.8c-1.8,4.7-1.7,9.9,0.4,14.5s5.8,8.2,10.6,10c2.2,0.8,4.5,1.3,6.8,1.3
	c0.5,0,1.1,0,1.6-0.1l22.7,53c-2.2,2-4,4.4-5.1,7.4c-3.7,9.7,1.2,20.7,10.9,24.4c2.2,0.8,4.5,1.3,6.7,1.3c2.6,0,5.3-0.6,7.7-1.7
	c4.6-2.1,8.1-5.8,9.9-10.5c3.7-9.7-1.2-20.7-10.9-24.4c-2.7-1-5.6-1.4-8.3-1.2l-22.7-53c0.3-0.3,0.6-0.6,0.9-0.9l74.9,37.1
	c-0.3,2.9,0.2,5.9,1.4,8.7c1.9,4.1,5.2,7.3,9.5,8.9c2,0.8,4,1.1,6.1,1.1c2.4,0,4.7-0.5,6.9-1.5c4.1-1.9,7.3-5.2,8.9-9.5
	C164.9,171.4,164.8,166.7,163,162.6z M45.1,35.8l56.7,13.5c0.2,0.6,0.4,1.1,0.6,1.7c0.7,1.6,1.7,3,3,4.1l-6.9,30.1
	c-6.2,0.8-11.7,4.9-14.1,11.1c-0.6,1.5-0.9,2.9-1,4.4l-25.3,6.4c-2.1-3.3-5.3-6-9.2-7.5c-1.4-0.5-2.8-0.9-4.3-1.1L34.5,45.9
	C39.1,43.7,42.8,40.2,45.1,35.8z"/>
</svg>
