<?xml version="1.0" encoding="utf-8"?>
<!-- Generator: Adobe Illustrator 28.0.0, SVG Export Plug-In . SVG Version: 6.00 Build 0)  -->
<svg version="1.1" id="Capa_1" xmlns="http://www.w3.org/2000/svg" xmlns:xlink="http://www.w3.org/1999/xlink" x="0px" y="0px"
	 viewBox="0 0 1800 1800" style="enable-background:new 0 0 1800 1800;" xml:space="preserve">
<style type="text/css">
	.st0{clip-path:url(#XMLID_00000008830929485632045100000011621539296827558535_);}
	.st1{fill:#367994;stroke:#4CA693;stroke-miterlimit:10;}
	.st2{clip-path:url(#XMLID_00000080204767243743616180000018258309602696391320_);}
	.st3{fill:#367994;}
	.st4{clip-path:url(#XMLID_00000052071457120219395440000016331159559745295760_);}
	
		.st5{clip-path:url(#XMLID_00000028301758260080819810000015840103990233854622_);fill-rule:evenodd;clip-rule:evenodd;fill:#367994;stroke:#4CA693;stroke-miterlimit:10;}
	.st6{clip-path:url(#XMLID_00000028301758260080819810000015840103990233854622_);}
	.st7{clip-path:url(#XMLID_00000112613455065475938470000011651836446799194254_);}
	.st8{fill:none;stroke:url(#SVGID_1_);stroke-width:30;stroke-miterlimit:10;}
	.st9{fill:none;stroke:url(#SVGID_00000094599070969877765870000010702502357174624909_);stroke-width:30;stroke-miterlimit:10;}
	.st10{fill:none;stroke:url(#SVGID_00000160168550512382950970000014897121833117299871_);stroke-width:30;stroke-miterlimit:10;}
	.st11{fill:none;stroke:url(#SVGID_00000030472440448322982060000010629346263201965490_);stroke-width:30;stroke-miterlimit:10;}
	.st12{fill:none;stroke:url(#SVGID_00000070117750579387596350000017527060608624062909_);stroke-width:30;stroke-miterlimit:10;}
	.st13{fill:#2D59A4;}
</style>
<g>
	<defs>
		<circle id="XMLID_00000175316207120281428460000011712451422262545087_" cx="392.5" cy="1209.6" r="216.8"/>
	</defs>
	<use xlink:href="#XMLID_00000175316207120281428460000011712451422262545087_"  style="overflow:visible;fill:#FFFFFF;"/>
	<clipPath id="XMLID_00000059282225769436500200000001339326965917648298_">
		<use xlink:href="#XMLID_00000175316207120281428460000011712451422262545087_"  style="overflow:visible;"/>
	</clipPath>
	<g style="clip-path:url(#XMLID_00000059282225769436500200000001339326965917648298_);">
		<circle class="st1" cx="506.5" cy="1148.9" r="27.8"/>
		<circle class="st1" cx="472.2" cy="1218" r="27.8"/>
		<path class="st1" d="M427.9,1251h-31.3h-31.3c-19,0-30.9,15.7-30.9,35.4v48.5h21.3V1292c0-2,1.7-3.3,3.3-3.3c2,0,3.3,1.3,3.3,3.3
			v42.7H431V1292c0-2,1.7-3.3,3.3-3.3c2,0,3.3,1.7,3.3,3.3v42.7H459v-48.1C459.3,1266.7,447.3,1251,427.9,1251z"/>
		<circle class="st1" cx="435.7" cy="1148.9" r="27.8"/>
		<path class="st1" d="M517.4,1218c0,15.4,12.4,27.8,27.8,27.8c15.4,0,27.8-12.4,27.8-27.8s-12.4-27.8-27.8-27.8
			C529.8,1190.3,517.4,1202.7,517.4,1218z"/>
		<path class="st1" d="M514.6,1251c-19,0-30.9,15.7-30.9,35.4v48.5H505V1292c0-2,1.7-3.3,3.3-3.3c2,0,3.3,1.3,3.3,3.3v42.7h68.7
			V1292c0-2,1.7-3.3,3.3-3.3c2,0,3.3,1.7,3.3,3.3v42.7h21.3v-48.1c0.3-20-11.7-35.7-30.9-35.7H546h-31.4V1251z"/>
		<circle class="st1" cx="253.9" cy="1218" r="27.8"/>
		<path class="st1" d="M212.5,1334.7V1292c0-2,1.7-3.3,3.3-3.3c2,0,3.3,1.3,3.3,3.3v42.7h68.7V1292c0-2,1.7-3.3,3.3-3.3
			c2,0,3.3,1.7,3.3,3.3v42.7h21.3v-48.1c0.3-20-11.7-35.7-30.9-35.7h-31.3h-31.3c-19,0-30.9,15.7-30.9,35.4v48.5H212.5L212.5,1334.7
			z"/>
		<path class="st1" d="M368.8,1218c0,15.4,12.4,27.8,27.8,27.8c15.4,0,27.8-12.4,27.8-27.8s-12.4-27.8-27.8-27.8
			C381.3,1190.3,368.8,1202.7,368.8,1218z"/>
		
			<ellipse transform="matrix(7.088903e-02 -0.9975 0.9975 7.088903e-02 -877.0833 1356.1627)" class="st1" cx="289.4" cy="1148.9" rx="27.8" ry="27.8"/>
		<circle class="st1" cx="364.5" cy="1148.9" r="27.8"/>
		<circle class="st1" cx="470.4" cy="1089.5" r="27.8"/>
		<circle class="st1" cx="324.2" cy="1089.5" r="27.8"/>
		<circle class="st1" cx="399.1" cy="1089.5" r="27.8"/>
		<circle class="st1" cx="327.2" cy="1218" r="27.8"/>
	</g>
	
		<use xlink:href="#XMLID_00000175316207120281428460000011712451422262545087_"  style="overflow:visible;fill:none;stroke:#4CA693;stroke-width:30;stroke-miterlimit:10;"/>
</g>
<g>
	<defs>
		<circle id="XMLID_00000082332614639900133310000011727621083364188829_" cx="1396.8" cy="754" r="216.8"/>
	</defs>
	<use xlink:href="#XMLID_00000082332614639900133310000011727621083364188829_"  style="overflow:visible;fill:#FFFFFF;"/>
	<clipPath id="XMLID_00000121254455172386431110000016404966113208990605_">
		<use xlink:href="#XMLID_00000082332614639900133310000011727621083364188829_"  style="overflow:visible;"/>
	</clipPath>
	<g style="clip-path:url(#XMLID_00000121254455172386431110000016404966113208990605_);">
		<g>
			<g>
				<path class="st3" d="M1497.1,700.6l-44.1-52.2h12.4c4.8,0,8.6-3.9,8.6-8.6v-54c0-4.8-3.9-8.6-8.6-8.6h-137.4
					c-4.8,0-8.6,3.9-8.6,8.6v54c0,4.8,3.9,8.6,8.6,8.6h12.4l-44.1,52.2c-1.3,1.6-2,3.5-2,5.6c0,10.1,0,208.9,0,216.1
					c0,4.8,3.9,8.6,8.6,8.6h187.5c4.8,0,8.6-3.9,8.6-8.6c0-11.4,0-207.9,0-216.1C1499.1,704.2,1498.4,702.2,1497.1,700.6z
					 M1336.7,631.2v-36.8h120.1v36.8C1433.7,631.2,1362.8,631.2,1336.7,631.2z M1481.9,913.6h-170.3v-41.2h170.3V913.6z
					 M1481.9,855.2h-170.3v-98.3h170.3V855.2z M1481.9,739.6h-170.3v-30.3l51.4-60.9h67.4l51.4,60.9V739.6z"/>
				<path class="st3" d="M1368.3,817.3h13.9c1.8,0,3.3,1.5,3.3,3.3v13.9c0,1.8,1.5,3.3,3.3,3.3h16c1.8,0,3.3-1.5,3.3-3.3v-13.9
					c0-1.8,1.5-3.3,3.3-3.3h13.9c1.8,0,3.3-1.5,3.3-3.3v-16c0-1.8-1.5-3.3-3.3-3.3h-13.9c-1.8,0-3.3-1.5-3.3-3.3v-13.9
					c0-1.8-1.5-3.3-3.3-3.3h-16c-1.8,0-3.3,1.5-3.3,3.3v13.9c0,1.8-1.5,3.3-3.3,3.3h-13.9c-1.8,0-3.3,1.5-3.3,3.3v16
					C1365.1,815.8,1366.5,817.3,1368.3,817.3z"/>
			</g>
		</g>
	</g>
	
		<use xlink:href="#XMLID_00000082332614639900133310000011727621083364188829_"  style="overflow:visible;fill:none;stroke:#4CA693;stroke-width:30;stroke-miterlimit:10;"/>
</g>
<g>
	<defs>
		<circle id="XMLID_00000051368937610441588800000017986992712870987142_" cx="934" cy="1557.7" r="216.8"/>
	</defs>
	<use xlink:href="#XMLID_00000051368937610441588800000017986992712870987142_"  style="overflow:visible;fill:#FFFFFF;"/>
	<clipPath id="XMLID_00000105405978195581572600000007895312199940255135_">
		<use xlink:href="#XMLID_00000051368937610441588800000017986992712870987142_"  style="overflow:visible;"/>
	</clipPath>
	<g style="clip-path:url(#XMLID_00000105405978195581572600000007895312199940255135_);">
		<g>
			<path class="st3" d="M1068.7,1621.3v-60.6H941.3v-45.4c37.8-3.8,67.5-35.8,67.5-74.6c0-41.3-33.6-75-75-75s-75,33.6-75,75
				c0,38.8,29.6,70.8,67.5,74.6v45.4H798.9v60.6c-25.4,3.7-45,25.5-45,51.9c0,28.9,23.5,52.5,52.5,52.5s52.5-23.5,52.5-52.5
				c0-26.4-19.6-48.2-45-51.9v-45.6h112.5v45.6c-25.4,3.7-45,25.5-45,51.9c0,28.9,23.5,52.5,52.5,52.5s52.5-23.5,52.5-52.5
				c0-26.4-19.6-48.2-45-51.9v-45.6h112.5v45.6c-25.4,3.7-45,25.5-45,51.9c0,28.9,23.5,52.5,52.5,52.5s52.5-23.5,52.5-52.5
				C1113.7,1646.8,1094.1,1624.9,1068.7,1621.3z M843.8,1673.2c0,20.7-16.8,37.5-37.5,37.5s-37.5-16.8-37.5-37.5
				c0-20.7,16.8-37.5,37.5-37.5S843.8,1652.5,843.8,1673.2z M971.3,1673.2c0,20.7-16.8,37.5-37.5,37.5c-20.7,0-37.5-16.8-37.5-37.5
				c0-20.7,16.8-37.5,37.5-37.5C954.5,1635.7,971.3,1652.5,971.3,1673.2z M933.8,1500.7c-33.1,0-60-26.9-60-60s26.9-60,60-60
				c33.1,0,60,26.9,60,60S966.9,1500.7,933.8,1500.7z M1061.2,1710.6c-20.7,0-37.5-16.8-37.5-37.5c0-20.7,16.8-37.5,37.5-37.5
				s37.5,16.8,37.5,37.5C1098.7,1693.8,1081.9,1710.6,1061.2,1710.6z"/>
		</g>
	</g>
	
		<use xlink:href="#XMLID_00000051368937610441588800000017986992712870987142_"  style="overflow:visible;fill:none;stroke:#4CA693;stroke-width:30;stroke-miterlimit:10;"/>
</g>
<g>
	<defs>
		<circle id="XMLID_00000173877907104506043400000000244819611673586096_" cx="963.1" cy="261.6" r="216.8"/>
	</defs>
	<use xlink:href="#XMLID_00000173877907104506043400000000244819611673586096_"  style="overflow:visible;fill:#FFFFFF;"/>
	<clipPath id="XMLID_00000072975400083561809990000013866834021780708510_">
		<use xlink:href="#XMLID_00000173877907104506043400000000244819611673586096_"  style="overflow:visible;"/>
	</clipPath>
	
		<path style="clip-path:url(#XMLID_00000072975400083561809990000013866834021780708510_);fill-rule:evenodd;clip-rule:evenodd;fill:#367994;stroke:#4CA693;stroke-miterlimit:10;" d="
		M873.9,307.6c-19.7,3.6-38.1,13.1-52.5,27.5c-18.6,18.6-29.1,43.9-29.1,70.3v57.5c0,23.6,19.1,42.7,42.7,42.7
		c59.6,0,196.7,0,256.2,0c23.6,0,42.7-19.1,42.7-42.7v-57.5c0-26.4-10.5-51.6-29.1-70.3c-14.4-14.4-32.7-23.9-52.5-27.5
		c6.7-13.4,10.4-28.4,10.4-44.4c0-55-44.7-99.7-99.7-99.7c-55,0-99.7,44.7-99.7,99.7C863.5,279.1,867.2,294.2,873.9,307.6
		L873.9,307.6z M1032.9,334.3c-18,17.6-42.6,28.5-69.8,28.5s-51.8-10.9-69.8-28.5c-0.6,0.1-1.1,0.1-1.7,0.1
		c-18.8,0-36.8,7.5-50.1,20.8c-13.3,13.3-20.8,31.3-20.8,50.1v57.5c0,7.9,6.4,14.2,14.2,14.2h256.2c7.9,0,14.2-6.4,14.2-14.2v-57.5
		c0-18.8-7.5-36.8-20.8-50.1c-13.3-13.3-31.3-20.8-50.1-20.8C1034,334.4,1033.5,334.4,1032.9,334.3z M963.1,192
		c39.3,0,71.2,31.9,71.2,71.2c0,39.3-31.9,71.2-71.2,71.2c-39.3,0-71.2-31.9-71.2-71.2C892,223.9,923.8,192,963.1,192z"/>
	<g style="clip-path:url(#XMLID_00000072975400083561809990000013866834021780708510_);">
		<g>
			<path class="st1" d="M1001.3,406.3h13.9c1.8,0,3.3,1.5,3.3,3.3v13.9c0,1.8,1.5,3.3,3.3,3.3h16c1.8,0,3.3-1.5,3.3-3.3v-13.9
				c0-1.8,1.5-3.3,3.3-3.3h13.9c1.8,0,3.3-1.5,3.3-3.3v-16c0-1.8-1.5-3.3-3.3-3.3h-13.9c-1.8,0-3.3-1.5-3.3-3.3v-13.9
				c0-1.8-1.5-3.3-3.3-3.3h-16c-1.8,0-3.3,1.5-3.3,3.3v13.9c0,1.8-1.5,3.3-3.3,3.3h-13.9c-1.8,0-3.3,1.5-3.3,3.3v16
				C998,404.9,999.5,406.3,1001.3,406.3z"/>
		</g>
	</g>
	
		<use xlink:href="#XMLID_00000173877907104506043400000000244819611673586096_"  style="overflow:visible;fill:none;stroke:#4CA693;stroke-width:30;stroke-miterlimit:10;"/>
</g>
<g>
	<defs>
		<circle id="XMLID_00000081631461623718181140000004025085503234231947_" cx="337.6" cy="569.2" r="216.8"/>
	</defs>
	<use xlink:href="#XMLID_00000081631461623718181140000004025085503234231947_"  style="overflow:visible;fill:#FFFFFF;"/>
	<clipPath id="XMLID_00000001630654983195316710000005424574084561224373_">
		<use xlink:href="#XMLID_00000081631461623718181140000004025085503234231947_"  style="overflow:visible;"/>
	</clipPath>
	<g style="clip-path:url(#XMLID_00000001630654983195316710000005424574084561224373_);">
		<path class="st1" d="M583.3,554.2l-52.1-50.9c-51.6-50.4-120.4-78-193.8-78s-142.2,27.7-193.8,78l-52.1,50.9
			c-11.6,12.7-4.4,26.2,0,30.1l52.1,50.9c51.6,50.3,120.4,78,193.8,78s142.2-27.7,193.8-78l52.1-50.9
			C587.4,580.3,595.3,567.4,583.3,554.2L583.3,554.2z M337.4,641.1c-39.6,0-71.9-32.2-71.9-71.9c0-39.6,32.2-71.9,71.9-71.9
			s71.9,32.2,71.9,71.9C409.3,608.9,377,641.1,337.4,641.1z M136.3,569.2l36.8-35.8c27.8-27.2,61.6-46.5,98.5-57
			c-29,20.7-48,54.6-48,92.8c0,38.2,18.9,72.2,48,92.8c-37-10.5-70.7-29.9-98.5-56.9L136.3,569.2L136.3,569.2z M501.8,605
			c-27.8,27.1-61.6,46.4-98.5,56.9c29-20.7,48-54.6,48-92.8c0-38.3-18.9-72.2-48-92.8c37,10.5,70.7,29.9,98.5,57l36.7,35.8
			L501.8,605L501.8,605z"/>
	</g>
	
		<use xlink:href="#XMLID_00000081631461623718181140000004025085503234231947_"  style="overflow:visible;fill:none;stroke:#4CA693;stroke-width:30;stroke-miterlimit:10;"/>
</g>
<linearGradient id="SVGID_1_" gradientUnits="userSpaceOnUse" x1="878.1223" y1="1259.4045" x2="948.5151" y2="1259.4045" gradientTransform="matrix(0.9882 -8.298020e-03 -8.684406e-02 0.7924 124.0576 286.8702)">
	<stop  offset="0" style="stop-color:#2E5AA4"/>
	<stop  offset="1" style="stop-color:#4CA693"/>
</linearGradient>
<line class="st8" x1="903.9" y1="1212.9" x2="930.5" y2="1341.7"/>
<linearGradient id="SVGID_00000058578695785696451330000009383777482475211397_" gradientUnits="userSpaceOnUse" x1="582.6353" y1="1038.5038" x2="814.0628" y2="1038.5038" gradientTransform="matrix(-0.8877 -8.596178e-02 -9.741275e-02 -0.9251 1399.1146 2074.8511)">
	<stop  offset="0" style="stop-color:#2E5AA4"/>
	<stop  offset="1" style="stop-color:#4CA693"/>
</linearGradient>
<line style="fill:none;stroke:url(#SVGID_00000058578695785696451330000009383777482475211397_);stroke-width:30;stroke-miterlimit:10;" x1="763.9" y1="983.5" x2="592.1" y2="1124.7"/>
<linearGradient id="SVGID_00000167365347474362670880000006653643812896831107_" gradientUnits="userSpaceOnUse" x1="460.6241" y1="732.5574" x2="747.8136" y2="732.5574" gradientTransform="matrix(-0.8344 -1.650747e-02 -1.650747e-02 -0.9984 1096.6779 1476.2529)">
	<stop  offset="0" style="stop-color:#2E5AA4"/>
	<stop  offset="1" style="stop-color:#4CA693"/>
</linearGradient>
<line style="fill:none;stroke:url(#SVGID_00000167365347474362670880000006653643812896831107_);stroke-width:30;stroke-miterlimit:10;" x1="698.8" y1="723.1" x2="462.1" y2="746.7"/>
<linearGradient id="SVGID_00000057851382643921816960000003975220006575035296_" gradientUnits="userSpaceOnUse" x1="735.1946" y1="598.3789" x2="974.2664" y2="598.3789" gradientTransform="matrix(0.9138 9.543378e-02 9.543378e-02 0.8943 37.3708 -41.3737)">
	<stop  offset="0" style="stop-color:#2E5AA4"/>
	<stop  offset="1" style="stop-color:#4CA693"/>
</linearGradient>
<line style="fill:none;stroke:url(#SVGID_00000057851382643921816960000003975220006575035296_);stroke-width:30;stroke-miterlimit:10;" x1="963.1" y1="478.4" x2="787.9" y2="672.3"/>
<linearGradient id="SVGID_00000100364256011573987380000003381631645369543598_" gradientUnits="userSpaceOnUse" x1="953.2297" y1="849.7624" x2="1188.7554" y2="849.7624" gradientTransform="matrix(0.9172 8.340818e-02 3.296493e-02 0.9586 72.3022 -66.516)">
	<stop  offset="0" style="stop-color:#2E5AA4"/>
	<stop  offset="1" style="stop-color:#4CA693"/>
</linearGradient>
<line style="fill:none;stroke:url(#SVGID_00000100364256011573987380000003381631645369543598_);stroke-width:30;stroke-miterlimit:10;" x1="985.3" y1="904.1" x2="1179.9" y2="770.7"/>
<path class="st13" d="M1109.2,1070.6c-4.9-10.5-13.3-18.6-24.3-22.7c-10.7-4.1-22.7-3.8-33.2,1c-4.3,2-8.4,4.6-12,7.9l-191.3-95
	c0.3-1,0.3-2.3,0.3-3.3l64.6-16.3c4.9,7.2,12,13,20.9,16.6c5.1,2,10.5,3.1,15.8,3.1c6.1,0,12.3-1.3,18.1-3.8
	c10.7-4.9,19.2-13.5,23.2-24.8c7.7-19.9-0.3-41.9-17.4-53.1l17.6-76.9c9.2-2.6,16.9-9.5,20.4-18.9c6.1-16.1-2-34.2-18.1-40.4
	c-12.3-4.6-25.8-1-34.2,8.2l-144.6-35c-0.5-23.8-15.1-45.7-38.6-54.7c-15.1-5.6-31.2-5.4-46,1.3c-14.6,6.4-25.8,18.4-31.7,33.2
	c-5.9,14.8-5.1,31.4,1.5,46c6.4,14.6,18.4,25.8,33.2,31.7c5.6,2,11.5,3.3,17.4,3.8l25.5,134.4c-10,5.6-17.6,14.3-21.7,25
	c-4.6,12-4.3,25.3,1,37c5.4,11.8,14.8,20.9,27.1,25.5c5.6,2,11.5,3.3,17.4,3.3c1.3,0,2.8,0,4.1-0.3l58,135.4
	c-5.6,5.1-10.2,11.2-13,18.9c-9.5,24.8,3.1,52.9,27.8,62.3c5.6,2,11.5,3.3,17.1,3.3c6.6,0,13.5-1.5,19.7-4.3
	c11.8-5.4,20.7-14.8,25.3-26.8c9.5-24.8-3.1-52.9-27.8-62.3c-6.9-2.6-14.3-3.6-21.2-3.1l-58-135.4c0.8-0.8,1.5-1.5,2.3-2.3
	l191.3,94.8c-0.8,7.4,0.5,15.1,3.6,22.2c4.9,10.5,13.3,18.6,24.3,22.7c5.1,2,10.2,2.8,15.6,2.8c6.1,0,12-1.3,17.6-3.8
	c10.5-4.9,18.6-13.3,22.7-24.3C1114,1093.1,1113.8,1081.1,1109.2,1070.6z M808,746.7l144.8,34.5c0.5,1.5,1,2.8,1.5,4.3
	c1.8,4.1,4.3,7.7,7.7,10.5l-17.6,76.9c-15.8,2-29.9,12.5-36,28.4c-1.5,3.8-2.3,7.4-2.6,11.2l-64.6,16.3
	c-5.4-8.4-13.5-15.3-23.5-19.2c-3.6-1.3-7.2-2.3-11-2.8l-25.8-134.4C792.7,766.9,802.1,758,808,746.7z"/>
</svg>
